<svg width="60" height="60" viewBox="0 0 60 60" fill="none" xmlns="http://www.w3.org/2000/svg">
<rect opacity="0.05" width="60" height="60" rx="13" fill="#5762F7"/>
<path d="M38.8728 29.0713C37.1927 29.0713 35.8342 30.4363 35.8342 32.1098C35.8342 32.5102 36.1624 32.8383 36.5627 32.8383C36.963 32.8383 37.2912 32.5102 37.2912 32.1098C37.2912 31.237 38.0065 30.5217 38.8793 30.5217C39.2797 30.5217 39.6078 30.1935 39.6078 29.7932C39.6012 29.3929 39.2731 29.0713 38.8728 29.0713Z" fill="#5762F7"/>
<path d="M43.8277 26.9778C43.6505 26.8071 43.4601 26.6431 43.2633 26.4856L40.5725 24.2017C39.5356 23.4667 38.3018 23.0007 36.963 22.9089L37.1074 23.0532L35.4733 21.4126H35.4602C35.0073 20.9991 34.397 20.7432 33.7342 20.7432C32.5922 20.7432 31.6275 21.4848 31.2994 22.5151C30.9713 22.3051 30.5906 22.1804 30.1772 22.1542C30.1115 22.1476 30.0393 22.1476 29.9737 22.1476C29.5078 22.1476 29.0746 22.2854 28.7071 22.5151C28.3724 21.4913 27.4077 20.7497 26.2723 20.7497C25.6095 20.7497 25.0057 20.9991 24.5463 21.4191H24.5332L22.8991 23.0598L23.0435 22.9154C21.7047 23.0073 20.4643 23.4798 19.434 24.2083L16.7432 26.4921C16.5463 26.6431 16.356 26.8071 16.1788 26.9843C14.8335 28.2838 14 30.1016 14 32.1164C14 36.054 17.2026 39.2567 21.1403 39.2567C24.776 39.2567 27.7883 36.52 28.2215 32.9958C28.7465 33.2977 29.3568 33.4683 30 33.4683C30.6497 33.4683 31.2534 33.2977 31.7785 32.9958C32.2182 36.5134 35.2239 39.2501 38.8597 39.2501C42.7973 39.2501 45.9999 36.0475 45.9999 32.1098C46.0065 30.0951 45.173 28.2772 43.8277 26.9778ZM21.1403 36.986C18.4495 36.986 16.2707 34.8071 16.2707 32.1164C16.2707 29.4257 18.4495 27.2468 21.1403 27.2468C23.831 27.2468 26.0098 29.4257 26.0098 32.1164C26.0164 34.8006 23.831 36.986 21.1403 36.986ZM30.0065 31.447C29.1337 31.447 28.4249 30.7382 28.4249 29.8654C28.4249 28.9925 29.1337 28.2838 30.0065 28.2838C30.8794 28.2838 31.5881 28.9925 31.5881 29.8654C31.5881 30.7382 30.8794 31.447 30.0065 31.447ZM38.8728 36.986C36.1821 36.986 34.0032 34.8071 34.0032 32.1164C34.0032 29.4257 36.1821 27.2468 38.8728 27.2468C41.5635 27.2468 43.7423 29.4257 43.7423 32.1164C43.7423 34.8006 41.5635 36.986 38.8728 36.986Z" fill="#5762F7"/>
<path d="M21.1401 29.0713C19.4601 29.0713 18.1016 30.4363 18.1016 32.1098C18.1016 32.5102 18.4297 32.8383 18.83 32.8383C19.2304 32.8383 19.5585 32.5102 19.5585 32.1098C19.5585 31.237 20.2738 30.5217 21.1467 30.5217C21.547 30.5217 21.8751 30.1935 21.8751 29.7932C21.8686 29.3929 21.5404 29.0713 21.1401 29.0713Z" fill="#5762F7"/>
</svg>
