<svg width="60" height="60" viewBox="0 0 60 60" fill="none" xmlns="http://www.w3.org/2000/svg">
<rect opacity="0.05" width="60" height="60" rx="13" fill="#5762F7"/>
<g clip-path="url(#clip0_219_1369)">
<path d="M39.8823 14.9412H20.1176C17.2565 14.9412 14.9412 17.2659 14.9412 20.1177V39.8824C14.9412 42.7342 17.2565 45.0589 20.1176 45.0589H39.8823C42.7341 45.0589 45.0588 42.7342 45.0588 39.8824V20.1177C45.0588 17.2659 42.7341 14.9412 39.8823 14.9412ZM26.2353 17.7648H27.647C28.4188 17.7648 29.0588 18.3953 29.0588 19.1765C29.0588 19.9577 28.4188 20.5883 27.647 20.5883H26.2353C25.4541 20.5883 24.8235 19.9577 24.8235 19.1765C24.8235 18.3953 25.4541 17.7648 26.2353 17.7648ZM34.3106 29.2377C34.5553 29.4165 34.7059 29.6989 34.7059 30C34.7059 30.3106 34.5553 30.593 34.3106 30.7718L27.7223 35.4777C27.5529 35.5906 27.3647 35.6471 27.1765 35.6471C27.0259 35.6471 26.8753 35.6189 26.7435 35.5436C26.4329 35.3836 26.2353 35.0636 26.2353 34.7059V25.2942C26.2353 24.9459 26.4329 24.6259 26.7435 24.4659C27.0541 24.3059 27.4306 24.3248 27.7223 24.5318L34.3106 29.2377ZM21.5294 42.2353H20.1176C19.3365 42.2353 18.7059 41.6048 18.7059 40.8236C18.7059 40.0424 19.3365 39.4118 20.1176 39.4118H21.5294C22.3012 39.4118 22.9412 40.0424 22.9412 40.8236C22.9412 41.6048 22.3012 42.2353 21.5294 42.2353ZM21.5294 20.5883H20.1176C19.3365 20.5883 18.7059 19.9577 18.7059 19.1765C18.7059 18.3953 19.3365 17.7648 20.1176 17.7648H21.5294C22.3012 17.7648 22.9412 18.3953 22.9412 19.1765C22.9412 19.9577 22.3012 20.5883 21.5294 20.5883ZM27.647 42.2353H26.2353C25.4541 42.2353 24.8235 41.6048 24.8235 40.8236C24.8235 40.0424 25.4541 39.4118 26.2353 39.4118H27.647C28.4188 39.4118 29.0588 40.0424 29.0588 40.8236C29.0588 41.6048 28.4188 42.2353 27.647 42.2353ZM33.7647 42.2353H32.3529C31.5718 42.2353 30.9412 41.6048 30.9412 40.8236C30.9412 40.0424 31.5718 39.4118 32.3529 39.4118H33.7647C34.5365 39.4118 35.1765 40.0424 35.1765 40.8236C35.1765 41.6048 34.5365 42.2353 33.7647 42.2353ZM33.7647 20.5883H32.3529C31.5718 20.5883 30.9412 19.9577 30.9412 19.1765C30.9412 18.3953 31.5718 17.7648 32.3529 17.7648H33.7647C34.5365 17.7648 35.1765 18.3953 35.1765 19.1765C35.1765 19.9577 34.5365 20.5883 33.7647 20.5883ZM39.8823 42.2353H38.4706C37.6894 42.2353 37.0588 41.6048 37.0588 40.8236C37.0588 40.0424 37.6894 39.4118 38.4706 39.4118H39.8823C40.6541 39.4118 41.2941 40.0424 41.2941 40.8236C41.2941 41.6048 40.6541 42.2353 39.8823 42.2353ZM39.8823 20.5883H38.4706C37.6894 20.5883 37.0588 19.9577 37.0588 19.1765C37.0588 18.3953 37.6894 17.7648 38.4706 17.7648H39.8823C40.6541 17.7648 41.2941 18.3953 41.2941 19.1765C41.2941 19.9577 40.6541 20.5883 39.8823 20.5883Z" fill="#5762F7"/>
</g>
<defs>
<clipPath id="clip0_219_1369">
<rect width="32" height="32" fill="white" transform="translate(14 14.0001)"/>
</clipPath>
</defs>
</svg>
