<svg width="60" height="60" viewBox="0 0 60 60" fill="none" xmlns="http://www.w3.org/2000/svg">
<rect opacity="0.05" width="60" height="60" rx="13" fill="#5762F7"/>
<path d="M24.0608 36.6616L23.1179 38.5475H24.9505C25.2617 38.5475 25.5507 38.7086 25.7142 38.9732C25.8777 39.2378 25.8927 39.5684 25.7534 39.8467L24.4256 42.5025L29.1022 46.0001V43.4595L25.4296 36.114L24.0608 36.6616Z" fill="#5762F7"/>
<path d="M22.5051 42.3289L23.4981 40.3429H21.6656C21.3544 40.3429 21.0654 40.1818 20.9019 39.9172C20.7384 39.6526 20.7234 39.3221 20.8626 39.0439L21.552 37.6652L20.9251 37.9159C18.3979 38.9268 16.4949 41.1069 15.8347 43.7475L15.2715 46H25.7663L22.7264 43.4142C22.4117 43.1464 22.3204 42.6984 22.5051 42.3289Z" fill="#5762F7"/>
<path d="M44.1655 43.7475C43.5053 41.1068 41.6023 38.9267 39.075 37.9159L38.4482 37.6652L39.1375 39.0439C39.2767 39.3221 39.2618 39.6526 39.0983 39.9172C38.9347 40.1818 38.6457 40.3429 38.3346 40.3429H36.502L37.495 42.3289C37.6798 42.6985 37.5885 43.1464 37.2738 43.4142L34.2339 46H44.7285L44.1655 43.7475Z" fill="#5762F7"/>
<path d="M34.2466 39.8467C34.1074 39.5684 34.1224 39.2378 34.2858 38.9732C34.4495 38.7086 34.7385 38.5475 35.0495 38.5475H36.8821L35.9393 36.6616L34.5705 36.114L30.8977 43.4595V46L35.5744 42.5025L34.2466 39.8467Z" fill="#5762F7"/>
<path d="M23.2562 18.9C23.3373 18.6419 23.5305 18.4343 23.7819 18.3348C24.033 18.235 24.3161 18.2541 24.5521 18.3866C24.6262 18.4281 31.8571 22.4293 39.0887 22.2602C39.1227 21.8795 39.1405 21.503 39.1405 21.1328C39.1405 18.5666 38.3064 16.7474 36.5905 15.5711C35.0698 14.5286 32.8525 14 30.0001 14C27.1477 14 24.9305 14.5286 23.4098 15.5711C21.6939 16.7474 20.8599 18.5666 20.8599 21.1328C20.8599 21.395 20.8689 21.6605 20.8862 21.9282C22.6587 20.7379 23.2497 18.9204 23.2562 18.9Z" fill="#5762F7"/>
<path d="M30 36.0838C29.0197 36.0838 28.0493 35.8704 27.1089 35.4578L30 41.2401L32.8912 35.4578C31.9508 35.8704 30.9803 36.0838 30 36.0838Z" fill="#5762F7"/>
<path d="M21.1458 23.8557C22.1818 28.9995 25.899 34.2883 30.0001 34.2883C34.0472 34.2883 37.7201 29.1393 38.812 24.0605C38.828 24.0604 38.844 24.0603 38.812 24.0603C32.7099 24.0603 26.7073 21.4849 24.5472 20.4089C24.0334 21.3931 22.9944 22.8991 21.1458 23.8557Z" fill="#5762F7"/>
</svg>
