<svg width="60" height="60" viewBox="0 0 60 60" fill="none" xmlns="http://www.w3.org/2000/svg">
<rect opacity="0.05" width="60" height="60" rx="13" fill="#5762F7"/>
<path d="M33.75 15.875H32.6523C32.265 14.7837 31.2222 14 30 14C28.7778 14 27.735 14.7837 27.3477 15.875H26.25C24.6991 15.875 23.4375 17.1366 23.4375 18.6875C23.4375 19.2057 23.8568 19.625 24.375 19.625H35.625C36.1432 19.625 36.5625 19.2057 36.5625 18.6875C36.5625 17.1366 35.3009 15.875 33.75 15.875Z" fill="#5762F7"/>
<path d="M39.375 17.75H38.3426C38.4044 18.0531 38.4375 18.3665 38.4375 18.6875C38.4375 20.2384 37.1759 21.5 35.625 21.5H24.375C22.8241 21.5 21.5625 20.2384 21.5625 18.6875C21.5625 18.3665 21.5956 18.0531 21.6574 17.75H20.625C19.0741 17.75 17.8125 19.0116 17.8125 20.5625V43.1875C17.8125 44.7384 19.0741 46 20.625 46H39.375C40.9259 46 42.1875 44.7384 42.1875 43.1875V20.5625C42.1875 19.0116 40.9259 17.75 39.375 17.75ZM27.1875 40.25H23.4375C22.9193 40.25 22.5 39.8307 22.5 39.3125C22.5 38.7943 22.9193 38.375 23.4375 38.375H27.1875C27.7057 38.375 28.125 38.7943 28.125 39.3125C28.125 39.8307 27.7057 40.25 27.1875 40.25ZM27.1875 33.6875H23.4375C22.9193 33.6875 22.5 33.2682 22.5 32.75C22.5 32.2318 22.9193 31.8125 23.4375 31.8125H27.1875C27.7057 31.8125 28.125 32.2318 28.125 32.75C28.125 33.2682 27.7057 33.6875 27.1875 33.6875ZM27.1875 27.125H23.4375C22.9193 27.125 22.5 26.7057 22.5 26.1875C22.5 25.6693 22.9193 25.25 23.4375 25.25H27.1875C27.7057 25.25 28.125 25.6693 28.125 26.1875C28.125 26.7057 27.7057 27.125 27.1875 27.125ZM36.2878 40.5247C36.654 40.8909 36.654 41.4842 36.2878 41.8504C36.1047 42.0335 35.8648 42.1251 35.625 42.1251C35.3852 42.1251 35.1452 42.0335 34.9622 41.8504L33.75 40.6382L32.5378 41.8504C32.3547 42.0335 32.1148 42.1251 31.875 42.1251C31.6352 42.1251 31.3952 42.0335 31.2122 41.8504C30.846 41.4842 30.846 40.8909 31.2122 40.5247L32.4243 39.3125L31.2121 38.1003C30.8459 37.7341 30.8459 37.1408 31.2121 36.7746C31.5783 36.4084 32.1716 36.4084 32.5378 36.7746L33.75 37.9868L34.9622 36.7746C35.3284 36.4084 35.9217 36.4084 36.2879 36.7746C36.6541 37.1408 36.6541 37.7341 36.2879 38.1003L35.0757 39.3125L36.2878 40.5247ZM37.2253 31.5378L34.4128 34.3503C34.2297 34.5334 33.9898 34.625 33.75 34.625C33.5102 34.625 33.2702 34.5334 33.0872 34.3503L31.2122 32.4753C30.846 32.1091 30.846 31.5158 31.2122 31.1496C31.5784 30.7834 32.1717 30.7834 32.5379 31.1496L33.75 32.3618L35.8997 30.2121C36.2659 29.8459 36.8592 29.8459 37.2254 30.2121C37.5916 30.5783 37.5916 31.1716 37.2253 31.5378ZM37.2253 25.9128L34.4128 28.7253C34.2297 28.9084 33.9898 29 33.75 29C33.5102 29 33.2702 28.9084 33.0872 28.7253L31.2122 26.8503C30.846 26.4841 30.846 25.8908 31.2122 25.5246C31.5784 25.1584 32.1717 25.1584 32.5379 25.5246L33.75 26.7368L35.8997 24.5871C36.2659 24.2209 36.8592 24.2209 37.2254 24.5871C37.5916 24.9533 37.5916 25.5466 37.2253 25.9128Z" fill="#5762F7"/>
</svg>
