<svg width="36" height="36" viewBox="0 0 36 36" fill="none" xmlns="http://www.w3.org/2000/svg">
<circle opacity="0.15" cx="18" cy="18" r="18" fill="white"/>
<g clip-path="url(#clip0_215_1164)">
<path d="M12.9375 11.001C12.9372 11.5314 12.7263 12.04 12.351 12.4149C11.9757 12.7898 11.4669 13.0003 10.9365 13C10.4061 12.9997 9.89746 12.7888 9.52258 12.4135C9.14769 12.0382 8.93724 11.5294 8.9375 10.999C8.93777 10.4686 9.14873 9.95996 9.52399 9.58508C9.89925 9.21019 10.4081 8.99974 10.9385 9C11.4689 9.00027 11.9775 9.21123 12.3524 9.58649C12.7273 9.96175 12.9378 10.4706 12.9375 11.001ZM12.9975 14.481H8.9975V27.001H12.9975V14.481ZM19.3175 14.481H15.3375V27.001H19.2775V20.431C19.2775 16.771 24.0475 16.431 24.0475 20.431V27.001H27.9975V19.071C27.9975 12.901 20.9375 13.131 19.2775 16.161L19.3175 14.481Z" fill="white"/>
</g>
<defs>
<clipPath id="clip0_215_1164">
<rect width="24" height="24" fill="white" transform="translate(6 6)"/>
</clipPath>
</defs>
</svg>
