<svg width="60" height="60" viewBox="0 0 60 60" fill="none" xmlns="http://www.w3.org/2000/svg">
<circle opacity="0.9" cx="30" cy="30" r="30" fill="white"/>
<path d="M40.6275 27.2775L27.75 19.8375C27.3819 19.6197 26.9627 19.5033 26.535 19.5C25.8627 19.5 25.2179 19.7671 24.7425 20.2425C24.2671 20.7179 24 21.3627 24 22.035V38.0025C24.0001 38.4487 24.1197 38.8867 24.3464 39.2709C24.573 39.6552 24.8985 39.9718 25.289 40.1877C25.6794 40.4035 26.1206 40.5109 26.5666 40.4986C27.0125 40.4862 27.4471 40.3546 27.825 40.1175L40.7175 31.9725C41.1184 31.7216 41.4474 31.3712 41.6726 30.9553C41.8977 30.5394 42.0113 30.0723 42.0022 29.5995C41.9932 29.1267 41.8618 28.6643 41.6208 28.2573C41.3799 27.8504 41.0377 27.5128 40.6275 27.2775Z" fill="#5762F7"/>
</svg>
