<svg width="36" height="36" viewBox="0 0 36 36" fill="none" xmlns="http://www.w3.org/2000/svg">
<circle opacity="0.15" cx="18" cy="18" r="18" fill="white"/>
<g clip-path="url(#clip0_215_1159)">
<path d="M28 10.009C27 10.499 26.02 10.698 25 10.999C23.879 9.73404 22.217 9.66404 20.62 10.262C19.023 10.86 17.977 12.322 18 13.999V14.999C14.755 15.082 11.865 13.604 10 10.999C10 10.999 5.818 18.432 14 21.999C12.128 23.246 10.261 24.087 8 23.999C11.308 25.802 14.913 26.422 18.034 25.516C21.614 24.476 24.556 21.793 25.685 17.774C26.0218 16.5517 26.189 15.2889 26.182 14.021C26.18 13.772 27.692 11.249 28 10.008V10.009Z" fill="white"/>
</g>
<defs>
<clipPath id="clip0_215_1159">
<rect width="24" height="24" fill="white" transform="translate(6 6)"/>
</clipPath>
</defs>
</svg>
